<svg width="27" height="27" viewBox="0 0 27 27" fill="none" xmlns="http://www.w3.org/2000/svg">
<path fill-rule="evenodd" clip-rule="evenodd" d="M8.4375 0H18.5625C23.2217 0 27 3.77831 27 8.4375V18.5625C27 23.2217 23.2217 27 18.5625 27H8.4375C3.77831 27 0 23.2217 0 18.5625V8.4375C0 3.77831 3.77831 0 8.4375 0ZM18.5625 24.4688C21.8194 24.4688 24.4688 21.8194 24.4688 18.5625V8.4375C24.4688 5.18062 21.8194 2.53125 18.5625 2.53125H8.4375C5.18062 2.53125 2.53125 5.18062 2.53125 8.4375V18.5625C2.53125 21.8194 5.18062 24.4688 8.4375 24.4688H18.5625Z" fill="white"/>
<path fill-rule="evenodd" clip-rule="evenodd" d="M6.75 13.5C6.75 9.77231 9.77231 6.75 13.5 6.75C17.2277 6.75 20.25 9.77231 20.25 13.5C20.25 17.2277 17.2277 20.25 13.5 20.25C9.77231 20.25 6.75 17.2277 6.75 13.5ZM9.28125 13.5C9.28125 15.8254 11.1746 17.7188 13.5 17.7188C15.8254 17.7188 17.7188 15.8254 17.7188 13.5C17.7188 11.1729 15.8254 9.28125 13.5 9.28125C11.1746 9.28125 9.28125 11.1729 9.28125 13.5Z" fill="white"/>
<circle cx="20.7562" cy="6.24368" r="0.899437" fill="white"/>
</svg>
