<svg width="27" height="22" viewBox="0 0 27 22" fill="none" xmlns="http://www.w3.org/2000/svg">
<path d="M27 2.59706C25.9959 3.0375 24.9261 3.32944 23.8106 3.47119C24.9581 2.78606 25.8339 1.70944 26.2457 0.41175C25.1758 1.04963 23.9946 1.50019 22.7357 1.75163C21.7198 0.669938 20.2719 0 18.6924 0C15.6279 0 13.1608 2.48738 13.1608 5.53669C13.1608 5.97544 13.1979 6.39731 13.2891 6.79894C8.68725 6.5745 4.61531 4.36894 1.87987 1.00913C1.40231 1.83769 1.12219 2.78606 1.12219 3.807C1.12219 5.724 2.10938 7.42331 3.58087 8.40713C2.69156 8.39025 1.81913 8.13206 1.08 7.72538C1.08 7.74225 1.08 7.76419 1.08 7.78613C1.08 10.476 2.99869 12.7103 5.51475 13.2249C5.06419 13.3481 4.57313 13.4072 4.0635 13.4072C3.70913 13.4072 3.35137 13.3869 3.01556 13.3127C3.73275 15.5048 5.76788 17.1163 8.18775 17.1686C6.3045 18.6418 3.91331 19.5294 1.32469 19.5294C0.87075 19.5294 0.435375 19.5092 0 19.4535C2.45194 21.0347 5.35781 21.9375 8.4915 21.9375C18.6773 21.9375 24.246 13.5 24.246 6.18638C24.246 5.94169 24.2376 5.70544 24.2257 5.47088C25.3243 4.69125 26.2474 3.71756 27 2.59706Z" fill="white"/>
</svg>
